<svg xmlns="http://www.w3.org/2000/svg" xmlns:xlink="http://www.w3.org/1999/xlink" width="23" height="23" viewBox="0 0 23 23"><defs><clipPath id="a"><rect width="23" height="23" transform="translate(-0.259 0)" fill="#e4e4e4" stroke="#707070" stroke-width="1"/></clipPath></defs><g transform="translate(0.259 0)" opacity="0.6" clip-path="url(#a)"><g transform="translate(-0.033 1.889)"><path d="M12.434,11.8,2.3,3.752a1.6,1.6,0,0,0-1.547.063A1.552,1.552,0,0,0,0,5.145v16.1a1.553,1.553,0,0,0,.755,1.328,1.608,1.608,0,0,0,1.548.063l10.132-8.05c.488-.459.873-.8.873-1.394S12.981,12.282,12.434,11.8Z" transform="translate(0 -3.582)" fill="#e4e4e4"/><path d="M30.626,11.8,20.493,3.752a1.6,1.6,0,0,0-1.548.063,1.552,1.552,0,0,0-.755,1.33v16.1a1.553,1.553,0,0,0,.755,1.328,1.608,1.608,0,0,0,1.548.063l10.132-8.05c.488-.459.873-.8.873-1.394S31.172,12.282,30.626,11.8Z" transform="translate(-8.432 -3.582)" fill="#e4e4e4"/></g></g></svg>